<svg class="w-36" viewBox="0 0 180 180" xmlns="http://www.w3.org/2000/svg" id="Layer_1" style="enable-background:new 0 0 180 180" version="1.1" x="0px" xml:space="preserve" xmlns:xlink="http://www.w3.org/1999/xlink" y="0px"><style>.st0{fill:currentColor}.st1{fill:#0891b2}.st2{fill:#f97316}</style><g id="g15" transform="translate(-271.20994,-114.40412)"><path d="m 428.74,204.77 c 0,13.54 -0.06,27.08 0.05,40.62 0.02,3.09 -0.97,5.01 -3.76,6.61 -23.48,13.42 -46.92,26.92 -70.25,40.6 -3.58,2.1 -6.24,1.93 -9.72,-0.11 -23.14,-13.55 -46.38,-26.94 -69.66,-40.25 -2.95,-1.69 -4.2,-3.62 -4.19,-7.06 0.11,-27.19 0.11,-54.39 0.01,-81.58 -0.01,-3.36 1.03,-5.43 4.04,-7.14 23.59,-13.47 47.1,-27.06 70.57,-40.73 2.92,-1.7 5.25,-1.81 8.23,-0.07 23.56,13.74 47.18,27.38 70.86,40.92 2.9,1.66 3.9,3.67 3.87,6.9 -0.13,13.75 -0.05,27.52 -0.05,41.29 z m -146.95,-0.61 c 0,11.82 0.07,23.63 -0.05,35.45 -0.03,2.85 0.86,4.64 3.4,6.09 20.29,11.61 40.53,23.29 60.71,35.08 2.94,1.72 5.26,1.77 8.22,0.04 20.18,-11.8 40.42,-23.48 60.71,-35.09 2.51,-1.44 3.49,-3.16 3.48,-6.04 -0.09,-23.63 -0.09,-47.26 0.01,-70.89 0.01,-2.95 -1.13,-4.56 -3.59,-5.97 -20.48,-11.73 -40.91,-23.54 -61.31,-35.41 -2.36,-1.37 -4.28,-1.44 -6.66,-0.05 -20.5,11.93 -41.03,23.79 -61.61,35.59 -2.37,1.36 -3.39,2.98 -3.36,5.75 0.12,11.82 0.05,23.63 0.05,35.45 z" class="st0" id="path9"></path><path d="m 328.36,147.58 c 6.72,-3.83 13.42,-7.7 20.17,-11.46 0.66,-0.37 1.85,-0.46 2.49,-0.12 6.92,3.79 13.77,7.68 20.65,11.55 -0.17,0.42 -0.33,0.83 -0.5,1.25 -14.11,0 -28.23,0 -42.34,0 -0.16,-0.4 -0.32,-0.81 -0.47,-1.22 z" class="st1" id="path10"></path><path d="m 290.11,194.66 c 0.04,-7.73 0.04,-15.47 0.16,-23.2 0.01,-0.76 0.52,-1.84 1.14,-2.21 6.74,-4.1 13.54,-8.09 20.33,-12.1 0.28,0.35 0.55,0.7 0.83,1.05 -7.06,12.22 -14.11,24.45 -21.17,36.67 -0.43,-0.07 -0.86,-0.14 -1.29,-0.21 z" class="st2" id="path11"></path><path d="m 311.76,251.31 c -6.68,-3.9 -13.37,-7.77 -20.01,-11.74 -0.65,-0.39 -1.33,-1.37 -1.35,-2.1 -0.18,-7.88 -0.23,-15.77 -0.32,-23.66 0.44,-0.06 0.89,-0.13 1.33,-0.19 7.06,12.22 14.11,24.45 21.17,36.67 -0.27,0.35 -0.55,0.69 -0.82,1.02 z" class="st1" id="path12"></path><path d="m 371.64,260.9 c -6.72,3.83 -13.42,7.7 -20.17,11.46 -0.66,0.37 -1.85,0.46 -2.49,0.12 -6.92,-3.79 -13.77,-7.68 -20.65,-11.55 0.17,-0.42 0.33,-0.83 0.5,-1.25 14.11,0 28.23,0 42.34,0 0.16,0.4 0.32,0.81 0.47,1.22 z" class="st2" id="path13"></path><path d="m 409.89,213.83 c -0.04,7.73 -0.04,15.47 -0.16,23.2 -0.01,0.76 -0.52,1.84 -1.14,2.21 -6.74,4.1 -13.54,8.09 -20.33,12.1 -0.28,-0.35 -0.55,-0.7 -0.83,-1.05 7.06,-12.22 14.11,-24.45 21.17,-36.67 0.43,0.07 0.86,0.14 1.29,0.21 z" class="st1" id="path14"></path><path d="m 388.24,157.17 c 6.68,3.9 13.37,7.77 20.01,11.74 0.65,0.39 1.33,1.37 1.35,2.1 0.18,7.88 0.23,15.77 0.32,23.66 -0.44,0.06 -0.89,0.13 -1.33,0.19 -7.06,-12.22 -14.11,-24.45 -21.17,-36.67 0.27,-0.34 0.55,-0.68 0.82,-1.02 z" class="st2" id="path15"></path></g></svg>